<svg xmlns="http://www.w3.org/2000/svg" xml:space="preserve" width="250" height="79.547" viewBox="0 0 66.146 21.047"><g aria-label="MATCH MEMORIES" style="font-size:19.7556px;line-height:0;font-family:&quot;Franklin Gothic Heavy&quot;;-inkscape-font-specification:&quot;Franklin Gothic Heavy, &quot;;fill:#f1f2f6;fill-rule:evenodd;stroke-width:1.5875;fill-opacity:1"><path d="M49.075 16.933h-2.277V7.982q0-1.1.135-2.692h-.038q-.213.907-.377 1.303l-4.128 10.34h-1.582L36.67 6.67q-.174-.454-.367-1.38h-.039q.078.83.078 2.71v8.933h-2.123V3.101h3.232l3.637 9.212q.414 1.06.54 1.582h.048q.357-1.09.579-1.62L45.959 3.1h3.116zm14.768 0h-2.517l-1.245-3.52h-5.44l-1.196 3.52h-2.509l5.18-13.832h2.586Zm-4.37-5.392-1.92-5.518q-.086-.27-.182-.868h-.039q-.087.55-.193.868l-1.9 5.518zM73.22 5.05h-3.975v11.883H66.95V5.05h-3.964V3.101H73.22zm10.87 11.305q-1.562.81-3.887.81-3.01 0-4.823-1.9t-1.813-4.988q0-3.318 2.035-5.363 2.045-2.045 5.16-2.045 2.007 0 3.329.57v2.276q-1.399-.83-3.087-.83-2.248 0-3.646 1.437-1.39 1.438-1.39 3.84 0 2.286 1.303 3.646 1.302 1.35 3.424 1.35 1.958 0 3.396-.926zm13.737.578h-2.305v-6H89.01v6h-2.295V3.101h2.295v5.816h6.512V3.101h2.305z" style="font-weight:600;line-height:1;font-family:&quot;Segoe UI&quot;;-inkscape-font-specification:&quot;Segoe UI Semi-Bold&quot;;text-align:center;text-anchor:middle;fill:#f1f2f6;fill-opacity:1" transform="translate(-10.875 -1.897)scale(.66125)"/><path d="M31.301 34.466h-2.276v-8.951q0-1.1.135-2.692h-.039q-.212.907-.376 1.303l-4.128 10.34h-1.582l-4.139-10.263q-.173-.454-.366-1.38h-.039q.077.83.077 2.711v8.932h-2.122V20.634h3.232l3.636 9.212q.415 1.06.54 1.582h.049q.357-1.09.579-1.62l3.704-9.174H31.3zm11.435 0h-7.765V20.634h7.457v1.948h-5.161V26.5h4.756v1.938h-4.756v4.09h5.47zm17.58 0H58.04v-8.951q0-1.1.135-2.692h-.039q-.212.907-.376 1.303l-4.129 10.34H52.05l-4.138-10.263q-.174-.454-.367-1.38h-.038q.077.83.077 2.711v8.932h-2.122V20.634h3.231l3.637 9.212q.415 1.06.54 1.582h.048q.357-1.09.58-1.62l3.703-9.174h3.116zm9.371.232q-2.99 0-4.794-1.939-1.795-1.939-1.795-5.045 0-3.338 1.833-5.325t4.978-1.987q2.913 0 4.688 1.93 1.784 1.929 1.784 5.044 0 3.386-1.823 5.354t-4.871 1.968m.106-12.28q-1.9 0-3.097 1.418-1.186 1.418-1.186 3.733 0 2.306 1.158 3.714 1.157 1.409 3.028 1.409 1.988 0 3.136-1.341 1.147-1.341 1.147-3.753 0-2.479-1.119-3.83-1.109-1.35-3.067-1.35m20.078 12.048h-2.682l-2.209-3.704q-.299-.511-.588-.868-.28-.366-.579-.598-.29-.231-.637-.338-.347-.106-.78-.106h-.927v5.614h-2.286V20.634h4.553q.974 0 1.794.231.82.232 1.428.704.608.463.945 1.168.347.694.347 1.63 0 .733-.221 1.35-.213.608-.618 1.09-.395.473-.964.81-.56.338-1.264.521v.04q.376.211.656.472.28.25.53.52.251.27.492.618.251.338.55.791zm-8.402-11.97v4.495h1.91q.53 0 .974-.164.454-.164.782-.473t.51-.753.184-.993q0-.994-.627-1.553-.627-.56-1.804-.56zM94.1 34.466h-2.363V20.634H94.1zm11.435 0H97.77V20.634h7.456v1.948h-5.16V26.5h4.755v1.938h-4.755v4.09h5.47zm2.088-.549v-2.364q.318.29.752.521.444.232.936.396.492.154.984.24.492.088.907.088 1.447 0 2.15-.483.715-.482.715-1.398 0-.492-.242-.85-.231-.366-.655-.665t-1.004-.569q-.569-.28-1.225-.579-.704-.376-1.312-.762-.607-.386-1.06-.849-.444-.472-.705-1.06-.25-.59-.25-1.38 0-.974.433-1.688.444-.724 1.158-1.187.723-.472 1.64-.694.916-.232 1.871-.232 2.17 0 3.164.492v2.267q-1.177-.849-3.029-.849-.511 0-1.022.097-.502.096-.907.318-.396.222-.646.569-.251.347-.251.84 0 .462.193.8t.56.617q.375.28.906.55.54.26 1.244.57.724.375 1.36.79.647.415 1.13.917.491.501.77 1.119.29.607.29 1.389 0 1.051-.424 1.775-.425.723-1.148 1.176-.714.454-1.65.656-.935.203-1.977.203-.347 0-.859-.058-.501-.048-1.032-.154-.53-.097-1.003-.241-.473-.145-.762-.328" style="font-weight:600;line-height:.775;font-family:&quot;Segoe UI&quot;;-inkscape-font-specification:&quot;Segoe UI Semi-Bold&quot;;text-align:center;letter-spacing:.264583px;text-anchor:middle;fill:#f1f2f6;fill-opacity:1" transform="translate(-10.875 -1.897)scale(.66125)"/></g><g fill="#0367fd" style="overflow:hidden;fill:#f1f2f6;fill-opacity:1"><path d="M864 501.333c33.408 0 65.259-6.613 94.528-18.304a445.7 445.7 0 0 0-25.088-121.77 503.7 503.7 0 0 0-282.155 26.282C697.26 456.107 775.424 501.333 864 501.333m37.845-209.6a448.85 448.85 0 0 0-240.81-201.792A254.38 254.38 0 0 0 608 245.333c0 29.675 5.333 58.048 14.656 84.566a568.7 568.7 0 0 1 279.19-38.166m-337.301 65.6a318.8 318.8 0 0 1-20.544-112c0-63.936 18.944-123.328 51.243-173.312A449.7 449.7 0 0 0 512 64c-90.88 0-175.296 27.243-245.93 73.75a844.7 844.7 0 0 0 155.2 330.538 572.6 572.6 0 0 1 143.274-110.955" style="fill:#f1f2f6;fill-opacity:1" transform="translate(-.684 -.684)scale(.01069)"/><path d="M876.523 771.797a444.8 444.8 0 0 0 81.493-220.565A319.8 319.8 0 0 1 864 565.333c-114.347 0-214.4-60.16-270.976-150.357a509.8 509.8 0 0 0-130.453 103.083C571.413 639.21 714.517 728.917 876.523 771.797m-759.19-121.13c-10.346 0-20.501.746-30.634 1.557A448.8 448.8 0 0 0 267.37 887.061a570.3 570.3 0 0 1 23.872-194.304 381.1 381.1 0 0 0-173.91-42.09m0-64c70.422 0 136.79 16.704 196.075 45.653a569.4 569.4 0 0 1 65.6-113.664 908.3 908.3 0 0 1-168.555-337.301C120.683 263.296 64 380.885 64 512c0 26.325 2.73 51.968 7.083 77.056a448 448 0 0 1 46.25-2.39M334.955 923.52c49.002 21.12 102.613 33.301 158.826 35.563-18.816-93.888-72.192-175.211-146.005-230.848a505 505 0 0 0-17.11 130.432c0 21.994 1.558 43.584 4.289 64.853m223.296 34.09c106.709-10.943 202.197-59.455 273.344-131.925A911.85 911.85 0 0 1 421.93 569.067a507 507 0 0 0-52.48 95.317 447.87 447.87 0 0 1 188.8 293.227" style="fill:#f1f2f6;fill-opacity:1" transform="translate(-.684 -.684)scale(.01069)"/></g><path d="M105.152 17.282c-1.535-.185-2.561-.995-2.956-2.333-.207-1-.23-1.855-.078-2.768.41-2.439 1.745-4.988 3.42-6.532 1.022-.942 2.419-1.756 3.845-2.241 1.358-.418 2.713-.692 4.153-.446 1.95.368 2.942 1.679 2.942 3.892 0 .845-.123 1.633-.405 2.585-.514 1.734-1.469 3.41-2.65 4.653-.727.765-1.782 1.511-2.935 2.074-1.847.902-3.772 1.305-5.336 1.116m3.243-1.916c1.097-.2 2.956-1.169 3.96-2.064 1.735-1.546 3.037-4.279 3.118-6.543.018-.506.002-.742-.052-.742-1.224 1.815-2.617 3.403-3.828 4.663-1.264 1.318-2.677 2.544-4.046 3.62l-.507.396c-.261.21-.586.557-.127.715.136.043 1.168.012 1.482-.045m-3.587-1.953c.24-.052.827-.274 1.152-.437 1.098-.55 3.457-2.12 4.745-3.159 1.407-1.132 3.113-3.122 3.672-4.28.132-.29.396-1.109.194-1.342-.086-.094-.439-.243-.8-.337-.31-.081-.364-.086-1.043-.087-.775-.001-1.022.024-1.675.172-1.637.37-3.316 1.254-4.437 2.336-1.278 1.235-2.099 2.865-2.513 4.992-.072.372-.084.517-.086 1.008-.047.696.193 1.256.791 1.134" style="fill:#f1f2f6;fill-opacity:1;fill-rule:evenodd;stroke-width:.18636" transform="translate(-10.875 -1.897)scale(.66125)"/></svg>